<svg xmlns="http://www.w3.org/2000/svg" xmlns:xlink="http://www.w3.org/1999/xlink" width="500" zoomAndPan="magnify" viewBox="0 0 375 374.999991" height="500" preserveAspectRatio="xMidYMid meet" version="1.0"><defs><clipPath id="05ef042fb4"><path d="M 0 8.476562 L 127.773438 8.476562 L 127.773438 366.84375 L 0 366.84375 Z M 0 8.476562 " clip-rule="nonzero"/></clipPath><clipPath id="114bcd94e9"><path d="M 3 8.476562 L 124.773438 8.476562 C 126.429688 8.476562 127.773438 9.820312 127.773438 11.476562 L 127.773438 363.523438 C 127.773438 365.179688 126.429688 366.523438 124.773438 366.523438 L 3 366.523438 C 1.34375 366.523438 0 365.179688 0 363.523438 L 0 11.476562 C 0 9.820312 1.34375 8.476562 3 8.476562 Z M 3 8.476562 " clip-rule="nonzero"/></clipPath><clipPath id="42d1b7b9b5"><path d="M 0 0.476562 L 127.773438 0.476562 L 127.773438 358.71875 L 0 358.71875 Z M 0 0.476562 " clip-rule="nonzero"/></clipPath><clipPath id="6b7fb670bb"><path d="M 3 0.476562 L 124.773438 0.476562 C 126.429688 0.476562 127.773438 1.820312 127.773438 3.476562 L 127.773438 355.523438 C 127.773438 357.179688 126.429688 358.523438 124.773438 358.523438 L 3 358.523438 C 1.34375 358.523438 0 357.179688 0 355.523438 L 0 3.476562 C 0 1.820312 1.34375 0.476562 3 0.476562 Z M 3 0.476562 " clip-rule="nonzero"/></clipPath><clipPath id="ba94a80b62"><rect x="0" width="128" y="0" height="359"/></clipPath><clipPath id="995d7d8c52"><path d="M 0 8.480469 L 127.5 8.480469 L 127.5 366.226562 L 0 366.226562 Z M 0 8.480469 " clip-rule="nonzero"/></clipPath><clipPath id="a80d294571"><path d="M 3 8.480469 L 124.769531 8.480469 C 126.425781 8.480469 127.769531 9.824219 127.769531 11.480469 L 127.769531 363.515625 C 127.769531 365.171875 126.425781 366.515625 124.769531 366.515625 L 3 366.515625 C 1.34375 366.515625 0 365.171875 0 363.515625 L 0 11.480469 C 0 9.824219 1.34375 8.480469 3 8.480469 Z M 3 8.480469 " clip-rule="nonzero"/></clipPath><clipPath id="4040e4d681"><path d="M 127.773438 8.09375 L 237.042969 8.09375 L 237.042969 366.207031 L 127.773438 366.207031 Z M 127.773438 8.09375 " clip-rule="nonzero"/></clipPath><clipPath id="5cd32c6c0c"><path d="M 130.773438 8.09375 L 234.042969 8.09375 C 235.699219 8.09375 237.042969 9.4375 237.042969 11.09375 L 237.042969 363.140625 C 237.042969 364.800781 235.699219 366.140625 234.042969 366.140625 L 130.773438 366.140625 C 129.117188 366.140625 127.773438 364.800781 127.773438 363.140625 L 127.773438 11.09375 C 127.773438 9.4375 129.117188 8.09375 130.773438 8.09375 Z M 130.773438 8.09375 " clip-rule="nonzero"/></clipPath><clipPath id="c4030b1919"><path d="M 0.773438 0.09375 L 110.042969 0.09375 L 110.042969 358.207031 L 0.773438 358.207031 Z M 0.773438 0.09375 " clip-rule="nonzero"/></clipPath><clipPath id="31445bb86a"><path d="M 3.773438 0.09375 L 107.042969 0.09375 C 108.699219 0.09375 110.042969 1.4375 110.042969 3.09375 L 110.042969 355.140625 C 110.042969 356.800781 108.699219 358.140625 107.042969 358.140625 L 3.773438 358.140625 C 2.117188 358.140625 0.773438 356.800781 0.773438 355.140625 L 0.773438 3.09375 C 0.773438 1.4375 2.117188 0.09375 3.773438 0.09375 Z M 3.773438 0.09375 " clip-rule="nonzero"/></clipPath><clipPath id="f0a54be940"><rect x="0" width="111" y="0" height="359"/></clipPath><clipPath id="56a0dd7b3d"><path d="M 127.773438 8.097656 L 237.273438 8.097656 L 237.273438 365.84375 L 127.773438 365.84375 Z M 127.773438 8.097656 " clip-rule="nonzero"/></clipPath><clipPath id="1a354454bb"><path d="M 130.773438 8.097656 L 234.039062 8.097656 C 235.695312 8.097656 237.039062 9.441406 237.039062 11.097656 L 237.039062 363.136719 C 237.039062 364.792969 235.695312 366.136719 234.039062 366.136719 L 130.773438 366.136719 C 129.117188 366.136719 127.773438 364.792969 127.773438 363.136719 L 127.773438 11.097656 C 127.773438 9.441406 129.117188 8.097656 130.773438 8.097656 Z M 130.773438 8.097656 " clip-rule="nonzero"/></clipPath><clipPath id="27b0c53c6e"><path d="M 231 4 L 375 4 L 375 371 L 231 371 Z M 231 4 " clip-rule="nonzero"/></clipPath><clipPath id="4296a30db3"><path d="M 230.683594 17.464844 L 320.949219 3.679688 L 375.027344 357.695312 L 284.757812 371.484375 Z M 230.683594 17.464844 " clip-rule="nonzero"/></clipPath><clipPath id="362c82899f"><path d="M 233.648438 17.011719 L 317.984375 4.132812 C 319.625 3.882812 321.152344 5.007812 321.402344 6.644531 L 374.546875 354.566406 C 374.796875 356.207031 373.671875 357.734375 372.035156 357.984375 L 287.699219 370.867188 C 286.0625 371.117188 284.53125 369.992188 284.28125 368.355469 L 231.136719 20.433594 C 230.886719 18.792969 232.011719 17.265625 233.648438 17.011719 Z M 233.648438 17.011719 " clip-rule="nonzero"/></clipPath><clipPath id="a05c99d7d8"><path d="M 0 0 L 143.878906 0 L 143.878906 367 L 0 367 Z M 0 0 " clip-rule="nonzero"/></clipPath><clipPath id="ffd7a9cdb0"><path d="M -0.316406 13.464844 L 89.949219 -0.320312 L 144.027344 353.695312 L 53.757812 367.484375 Z M -0.316406 13.464844 " clip-rule="nonzero"/></clipPath><clipPath id="a7e2569b6e"><path d="M 2.648438 13.011719 L 86.984375 0.132812 C 88.625 -0.117188 90.152344 1.007812 90.402344 2.644531 L 143.546875 350.566406 C 143.796875 352.207031 142.671875 353.734375 141.035156 353.984375 L 56.699219 366.867188 C 55.0625 367.117188 53.53125 365.992188 53.28125 364.355469 L 0.136719 16.433594 C -0.113281 14.792969 1.011719 13.265625 2.648438 13.011719 Z M 2.648438 13.011719 " clip-rule="nonzero"/></clipPath><clipPath id="8aa8e3ac01"><rect x="0" width="144" y="0" height="367"/></clipPath><clipPath id="3d5680366e"><path d="M 231 4 L 375 4 L 375 371 L 231 371 Z M 231 4 " clip-rule="nonzero"/></clipPath><clipPath id="239a3c4f7a"><path d="M 230.683594 17.464844 L 321.132812 3.652344 L 375.152344 357.296875 L 284.703125 371.113281 Z M 230.683594 17.464844 " clip-rule="nonzero"/></clipPath><clipPath id="4fbd527fdc"><path d="M 230.683594 17.464844 L 322.40625 3.457031 L 377.046875 361.175781 L 285.324219 375.183594 Z M 230.683594 17.464844 " clip-rule="nonzero"/></clipPath><clipPath id="f6704cadf9"><path d="M 233.648438 17.011719 L 317.984375 4.132812 C 319.621094 3.882812 321.152344 5.007812 321.402344 6.644531 L 374.542969 354.558594 C 374.792969 356.195312 373.667969 357.726562 372.03125 357.976562 L 287.699219 370.859375 C 286.058594 371.109375 284.527344 369.984375 284.277344 368.347656 L 231.136719 20.433594 C 230.886719 18.792969 232.011719 17.265625 233.648438 17.011719 Z M 233.648438 17.011719 " clip-rule="nonzero"/></clipPath></defs><g clip-path="url(#05ef042fb4)"><g clip-path="url(#114bcd94e9)"><g transform="matrix(1, 0, 0, 1, 0, 8)"><g clip-path="url(#ba94a80b62)"><g clip-path="url(#42d1b7b9b5)"><g clip-path="url(#6b7fb670bb)"><path fill="#bfbfff" d="M 0 0.476562 L 127.773438 0.476562 L 127.773438 358.34375 L 0 358.34375 Z M 0 0.476562 " fill-opacity="1" fill-rule="nonzero"/></g></g></g></g></g></g><g clip-path="url(#995d7d8c52)"><g clip-path="url(#a80d294571)"><path stroke-linecap="butt" transform="matrix(0.75, 0, 0, 0.75, 0.0000045, 8.481762)" fill="none" stroke-linejoin="miter" d="M 3.999994 -0.00172487 L 166.35938 -0.00172487 C 168.567713 -0.00172487 170.35938 1.789942 170.35938 3.998275 L 170.35938 473.378515 C 170.35938 475.586848 168.567713 477.378515 166.35938 477.378515 L 3.999994 477.378515 C 1.791661 477.378515 -0.000006 475.586848 -0.000006 473.378515 L -0.000006 3.998275 C -0.000006 1.789942 1.791661 -0.00172487 3.999994 -0.00172487 Z M 3.999994 -0.00172487 " stroke="#25388d" stroke-width="20" stroke-opacity="1" stroke-miterlimit="4"/></g></g><g clip-path="url(#4040e4d681)"><g clip-path="url(#5cd32c6c0c)"><g transform="matrix(1, 0, 0, 1, 127, 8)"><g clip-path="url(#f0a54be940)"><g clip-path="url(#c4030b1919)"><g clip-path="url(#31445bb86a)"><path fill="#dbe5ff" d="M 0.773438 0.09375 L 110.042969 0.09375 L 110.042969 358.207031 L 0.773438 358.207031 Z M 0.773438 0.09375 " fill-opacity="1" fill-rule="nonzero"/></g></g></g></g></g></g><g clip-path="url(#56a0dd7b3d)"><g clip-path="url(#1a354454bb)"><path stroke-linecap="butt" transform="matrix(0.75, 0, 0, 0.75, 127.774683, 8.098895)" fill="none" stroke-linejoin="miter" d="M 3.998339 -0.00165101 L 141.685848 -0.00165101 C 143.894182 -0.00165101 145.685848 1.790016 145.685848 3.998349 L 145.685848 473.383797 C 145.685848 475.59213 143.894182 477.383797 141.685848 477.383797 L 3.998339 477.383797 C 1.790006 477.383797 -0.00166108 475.59213 -0.00166108 473.383797 L -0.00166108 3.998349 C -0.00166108 1.790016 1.790006 -0.00165101 3.998339 -0.00165101 Z M 3.998339 -0.00165101 " stroke="#25388d" stroke-width="20" stroke-opacity="1" stroke-miterlimit="4"/></g></g><g clip-path="url(#27b0c53c6e)"><g clip-path="url(#4296a30db3)"><g clip-path="url(#362c82899f)"><g transform="matrix(1, 0, 0, 1, 231, 4)"><g clip-path="url(#8aa8e3ac01)"><g clip-path="url(#a05c99d7d8)"><g clip-path="url(#ffd7a9cdb0)"><g clip-path="url(#a7e2569b6e)"><path fill="#ffffff" d="M -0.316406 13.464844 L 89.949219 -0.320312 L 144.027344 353.695312 L 53.757812 367.484375 Z M -0.316406 13.464844 " fill-opacity="1" fill-rule="nonzero"/></g></g></g></g></g></g></g></g><g clip-path="url(#3d5680366e)"><g clip-path="url(#239a3c4f7a)"><g clip-path="url(#4fbd527fdc)"><g clip-path="url(#f6704cadf9)"><path stroke-linecap="butt" transform="matrix(0.741401, -0.113246, 0.113246, 0.741401, 230.68348, 17.46649)" fill="none" stroke-linejoin="miter" d="M 3.999509 -0.00248629 L 117.751048 0.00153745 C 119.958651 0.00153994 121.750418 1.792623 121.750415 4.000225 L 121.748066 473.265698 C 121.748064 475.473301 119.956981 477.265068 117.749378 477.265065 L 4.002202 477.266976 C 1.78945 477.266188 -0.00231635 475.475105 -0.00231385 473.267502 L 0.0000347802 4.002029 C 0.000823704 1.789278 1.79112 0.00265984 3.999509 -0.00248629 Z M 3.999509 -0.00248629 " stroke="#25388d" stroke-width="20" stroke-opacity="1" stroke-miterlimit="4"/></g></g></g></g></svg>